<?xml version="1.0" standalone="no"?>
<!DOCTYPE svg PUBLIC "-//W3C//DTD SVG 20010904//EN"
 "http://www.w3.org/TR/2001/REC-SVG-20010904/DTD/svg10.dtd">
<svg version="1.0" xmlns="http://www.w3.org/2000/svg"
 width="200.000000pt" height="200.000000pt" viewBox="0 0 200.000000 200.000000"
 preserveAspectRatio="xMidYMid meet">
<metadata>
Created by potrace 1.14, written by Peter Selinger 2001-2017
</metadata>
<g transform="translate(0.000000,200.000000) scale(0.100000,-0.100000)"
fill="#000000" stroke="none">
<path d="M0 1775 l0 -225 115 0 115 0 0 45 0 45 -90 0 -90 0 0 180 0 180 -25
0 -25 0 0 -225z"/>
<path d="M300 1775 l0 -225 101 0 c88 0 100 -2 95 -16 -44 -115 -68 -377 -47
-511 14 -88 61 -221 72 -202 4 8 -4 47 -19 89 -22 65 -26 96 -29 235 -4 133
-1 176 15 255 29 137 35 150 72 150 29 0 30 2 30 44 0 25 -5 46 -12 48 -16 6
74 98 96 98 18 0 116 -86 116 -102 0 -11 -31 -3 -82 22 l-38 17 0 -54 c0 -49
2 -54 28 -65 15 -6 61 -13 102 -15 94 -6 141 11 171 62 19 32 25 35 65 35 l44
0 0 -45 0 -45 55 0 55 0 0 60 0 60 50 25 c27 14 50 24 50 22 0 -2 -11 -37 -25
-77 -14 -40 -25 -77 -25 -82 0 -4 25 -8 55 -8 l54 0 12 40 12 40 78 0 78 0 12
-40 c11 -36 15 -40 46 -40 38 0 38 -2 18 -59 -18 -52 -1 -55 22 -3 28 65 31
76 47 142 25 109 28 146 16 188 -13 50 -22 56 -84 57 l-50 0 -20 63 -20 63
-65 -3 -64 -3 -39 -117 -39 -117 -54 -30 c-30 -17 -58 -31 -62 -31 -5 0 -8 67
-7 150 l1 150 -54 0 -53 0 0 -170 0 -170 -45 0 c-41 0 -45 2 -45 25 0 38 -25
92 -52 109 -12 8 -54 22 -91 32 -74 18 -96 39 -77 74 9 16 21 20 66 20 30 0
70 -7 89 -14 l35 -15 0 48 c0 59 -5 61 -132 61 -82 0 -90 -2 -119 -28 -26 -23
-33 -38 -37 -80 -9 -93 18 -124 141 -162 45 -14 66 -26 70 -39 6 -24 -2 -37
-31 -46 -20 -6 -34 3 -87 54 -44 42 -71 61 -89 61 -29 0 -87 -47 -113 -91 -17
-28 -20 -29 -90 -29 l-73 0 0 50 0 50 85 0 85 0 0 45 0 45 -85 0 -85 0 0 40 0
40 90 0 90 0 0 45 0 45 -140 0 -140 0 0 -225z m1152 58 c-22 -18 -24 -11 -10
28 12 33 12 34 19 9 4 -17 1 -29 -9 -37z m214 -8 c7 -27 -3 -146 -15 -177 -4
-13 -18 15 -43 92 l-36 110 44 0 c38 0 44 -3 50 -25z m-183 -42 c3 -16 9 -36
12 -45 6 -16 1 -18 -43 -18 l-50 0 11 36 c9 31 31 51 58 53 4 1 9 -11 12 -26z"/>
<path d="M1556 1376 c-9 -19 -19 -48 -22 -64 -6 -27 -4 -30 37 -40 24 -6 45
-9 47 -7 9 9 -11 25 -31 25 -46 0 -51 14 -23 62 28 48 31 58 17 58 -5 0 -16
-15 -25 -34z"/>
<path d="M1670 1250 c0 -5 16 -17 35 -26 40 -19 75 -58 75 -84 0 -20 -83 -101
-128 -124 -17 -9 -40 -16 -52 -16 -37 0 -34 -27 9 -68 23 -21 41 -44 41 -50 0
-19 -102 -123 -140 -142 -36 -19 -37 -20 -29 -62 9 -55 25 -108 49 -164 l19
-44 -109 0 -109 0 -3 -156 -3 -156 -42 33 -42 34 0 123 -1 122 -60 0 -60 0 0
-85 0 -85 -25 16 c-13 8 -29 13 -35 9 -6 -4 3 -16 22 -29 33 -22 33 -22 33
-105 0 -70 -3 -85 -19 -97 -25 -18 -66 -17 -91 2 -18 14 -20 29 -23 194 l-3
180 -55 0 -54 0 0 -172 c0 -146 3 -179 19 -213 32 -69 51 -80 156 -83 91 -4
93 -3 127 27 36 31 58 85 58 140 l0 32 32 -23 c18 -13 42 -28 53 -33 17 -9 21
-22 23 -78 l3 -67 54 0 55 0 0 86 c0 75 2 85 16 80 9 -3 27 -9 41 -12 20 -5
33 -24 60 -80 l34 -74 54 0 c30 0 55 4 55 10 0 5 -18 47 -39 92 -54 114 -59
138 -32 145 19 5 21 12 21 76 0 69 -1 71 -41 109 -31 29 -48 60 -74 130 -52
138 -52 144 -15 163 43 22 108 83 126 117 18 35 11 63 -27 103 l-29 31 47 14
c32 9 64 30 100 65 45 43 53 57 53 87 0 29 -7 42 -36 68 -20 17 -47 36 -61 41
-30 11 -33 11 -33 -1z m-132 -892 c16 -14 15 -63 -2 -77 -8 -7 -30 -15 -50
-18 l-36 -6 0 63 0 62 38 -7 c20 -4 43 -11 50 -17z"/>
<path d="M1035 1194 c-42 -45 -25 -109 34 -134 24 -9 35 -9 60 4 l31 16 -10
-25 c-15 -38 -12 -117 4 -157 24 -57 166 -229 210 -254 10 -6 30 -9 43 -5 24
6 25 11 27 96 2 73 8 107 36 182 29 79 32 98 24 130 -11 45 -38 54 -70 24
l-21 -19 -6 60 c-6 66 -15 82 -41 72 -21 -8 -45 -52 -71 -132 l-20 -63 -39 50
c-21 28 -42 51 -46 51 -5 0 -6 18 -3 39 5 33 1 44 -20 65 -36 36 -89 36 -122
0z m70 -34 c0 -18 -6 -26 -23 -28 -24 -4 -38 18 -28 44 3 9 15 14 28 12 17 -2
23 -10 23 -28z m270 -147 c6 -31 25 -47 25 -20 0 7 12 26 28 42 l27 30 3 -47
c2 -35 -5 -66 -27 -120 -26 -60 -31 -86 -31 -150 0 -86 -7 -93 -51 -55 -36 32
-111 124 -148 181 -24 39 -31 61 -31 100 0 81 12 85 54 16 20 -33 40 -60 43
-60 12 0 32 36 33 57 0 26 38 132 54 152 8 11 12 2 13 -40 2 -30 5 -69 8 -86z"/>
<path d="M1230 895 c0 -34 68 -105 101 -105 20 0 59 49 59 74 0 22 -24 30 -48
17 -15 -8 -31 -7 -62 4 -48 17 -50 17 -50 10z"/>
<path d="M511 1188 c-38 -40 -36 -72 7 -120 24 -29 86 -24 111 8 27 34 27 84
1 112 -28 30 -92 30 -119 0z m73 -24 c7 -19 -10 -44 -29 -44 -19 0 -36 25 -29
44 3 9 16 16 29 16 13 0 26 -7 29 -16z"/>
<path d="M270 1060 l-24 -51 -17 23 c-16 21 -18 21 -24 5 -4 -9 -6 -52 -4 -94
5 -90 35 -163 98 -234 34 -38 40 -42 55 -30 12 10 16 31 16 85 0 39 7 96 16
126 8 30 18 79 21 108 5 44 3 52 -11 52 -9 0 -25 -9 -36 -20 l-20 -20 -10 25
c-6 15 -10 30 -10 34 0 4 -6 15 -13 25 -12 16 -15 12 -37 -34z m50 -72 c0 -38
14 -35 41 10 32 52 37 20 10 -63 -15 -45 -21 -90 -21 -150 0 -77 -2 -86 -17
-83 -11 2 -38 43 -70 107 -51 100 -64 153 -43 166 6 3 10 -1 10 -10 0 -34 24
-7 44 49 l21 58 12 -28 c7 -16 12 -41 13 -56z"/>
<path d="M308 900 c-15 -11 -31 -20 -37 -20 -19 0 -12 -29 10 -40 24 -13 46 1
60 39 14 35 -3 45 -33 21z"/>
<path d="M610 1022 c0 -11 351 -24 403 -15 93 15 31 23 -177 23 -124 0 -226
-4 -226 -8z"/>
<path d="M400 463 c0 -4 34 -64 75 -133 l75 -125 0 -102 0 -103 55 0 55 0 0
96 0 96 80 133 c44 73 80 136 80 139 0 3 -27 6 -60 6 l-59 0 -43 -80 c-24 -44
-47 -79 -51 -77 -4 1 -27 36 -50 77 l-43 75 -57 3 c-31 2 -57 -1 -57 -5z"/>
<path d="M1882 453 c-5 -10 -39 -108 -75 -218 -36 -110 -68 -208 -72 -217 -6
-16 0 -18 49 -18 l55 0 12 40 12 40 69 0 68 0 0 45 0 45 -50 0 c-27 0 -50 5
-50 10 0 20 44 160 51 160 3 0 15 -30 27 -67 l20 -68 1 133 1 132 -55 0 c-42
0 -56 -4 -63 -17z"/>
</g>
</svg>
